<svg width="1392" height="282" viewBox="0 0 1392 282" fill="none" xmlns="http://www.w3.org/2000/svg">
<g clip-path="url(#clip0_218_8966)">
<path d="M447.783 70.8402C439.258 66.1402 429.167 63.6963 417.336 63.6963C407.071 63.6963 397.676 65.7643 389.151 69.7122C380.626 73.6601 373.319 79.3 367.055 86.4439C360.792 93.5878 355.92 102.048 352.093 111.824C348.439 121.599 346.177 132.503 345.655 144.159C344.959 156.943 346.873 168.035 351.223 177.058C355.572 186.082 362.01 193.038 370.535 197.738C378.364 202.062 387.759 204.506 398.372 204.694H398.198C403.07 204.694 406.723 205.446 409.159 206.95C411.595 208.454 413.335 210.898 414.726 214.282L426.905 245.677L451.437 236.09L441.346 210.146C440.128 206.762 438.388 204.13 436.474 201.874C434.735 199.994 432.821 198.678 430.559 197.738C438.388 193.79 445.173 188.526 451.089 181.946C457.526 174.803 462.398 166.343 466.051 156.567C469.705 146.791 471.793 135.887 472.489 123.855C473.185 111.072 471.271 99.9797 466.921 90.9559C462.572 82.308 456.134 75.5401 447.783 70.8402ZM443.26 124.795C442.738 135.511 440.824 144.911 437.518 152.995C434.213 161.267 429.515 167.659 423.774 172.359C417.858 177.058 410.899 179.314 402.548 179.314C393.501 179.314 386.541 176.306 381.67 170.479C376.798 164.651 374.536 155.627 375.058 143.595C375.58 132.879 377.494 123.291 380.974 115.207C384.453 106.936 388.977 100.544 394.892 96.0318C400.808 91.3318 407.767 89.0759 415.596 89.0759C424.644 89.0759 431.777 92.0838 436.648 97.9117C441.52 103.74 443.782 112.764 443.26 124.795Z" fill="white"/>
<path d="M550.281 107.484L540.538 158.244C539.494 163.131 538.102 167.455 536.014 170.839C533.926 174.411 531.317 177.043 528.359 179.111C525.401 180.991 521.921 182.119 518.268 182.119C515.31 182.119 512.874 181.367 511.135 180.051C509.395 178.735 508.351 176.667 507.829 173.847C507.307 171.027 507.481 167.643 508.351 163.883L519.312 107.672H492.17L481.035 164.259C479.296 173.659 479.296 181.367 480.861 187.383C482.427 193.399 485.211 197.911 489.561 200.731C493.91 203.551 499.13 204.867 505.393 204.867C512.352 204.867 518.616 203.175 524.183 199.791C528.533 196.971 532.36 193.399 535.318 188.699L532.534 202.987H559.154L577.596 107.484H550.281Z" fill="white"/>
<path d="M652.09 111.428C646.522 107.48 638.693 105.412 628.428 105.412C623.556 105.412 618.511 105.788 613.639 106.728C608.594 107.668 603.896 108.984 599.547 110.676C595.197 112.368 591.37 114.436 588.238 116.88L592.761 136.62C598.155 133.424 603.2 130.98 608.42 129.476C613.465 127.972 618.685 127.22 623.904 127.22C629.994 127.22 634.343 128.724 636.779 131.544C639.215 134.364 639.911 138.5 638.867 143.764L638.345 146.207H625.992C614.683 146.207 605.288 147.147 597.981 149.215C590.5 151.283 584.932 154.291 581.278 158.615C577.451 162.939 575.537 168.391 575.189 175.159C574.841 180.611 576.059 185.499 578.669 190.011C581.278 194.523 584.758 198.095 589.108 200.727C593.457 203.547 598.503 204.863 603.896 204.863C607.898 204.863 611.726 204.111 615.379 202.607C619.033 201.103 622.512 198.847 625.644 195.651C627.558 193.771 629.124 191.515 630.69 188.883L627.906 202.983H653.133L663.572 150.531C665.138 141.884 665.138 134.364 663.398 127.596C661.311 120.828 657.657 115.376 652.09 111.428ZM630.168 176.287C628.08 179.295 625.818 181.363 622.86 182.867C620.077 184.371 616.771 185.123 613.117 185.123C609.464 185.123 606.506 183.995 604.244 181.927C601.808 179.859 600.765 176.851 600.939 172.903C601.113 169.895 601.982 167.639 603.548 165.759C605.114 164.067 607.724 162.751 611.378 161.999C615.031 161.247 619.729 160.871 625.296 160.871H635.039L634.169 165.759C633.647 169.895 632.256 173.279 630.168 176.287Z" fill="white"/>
<path d="M757.012 109.569C752.662 106.749 747.269 105.245 740.831 105.245C733.524 105.245 727.087 106.937 721.519 110.321C716.996 113.141 713.168 116.901 710.037 121.789L712.994 107.313H686.375L667.933 202.816H695.074L705.165 151.868C706.035 146.792 707.427 142.469 709.515 139.085C711.602 135.513 714.212 132.881 717.344 131.001C720.475 129.121 723.955 128.181 728.131 128.181C731.262 128.181 733.698 128.933 735.438 130.249C737.178 131.753 738.222 133.633 738.918 136.265C739.44 138.897 739.266 142.281 738.57 146.416L727.435 202.816H754.576L765.885 146.04C767.625 136.641 767.799 128.933 766.233 122.917C764.319 116.901 761.361 112.389 757.012 109.569Z" fill="white"/>
<path d="M816.228 129.103H842.151L846.675 107.484H820.403L826.145 79.2842H799.003L793.262 107.484H776.734L772.21 129.103H788.912L781.779 165.763C780.387 173.471 780.735 180.239 782.475 186.066C784.215 191.894 787.694 196.594 792.914 199.978C798.133 203.362 804.919 204.866 813.444 204.866C816.576 204.866 819.707 204.49 823.013 203.926C826.319 203.362 829.102 202.422 831.364 201.294V179.487C829.45 180.051 827.885 180.427 826.319 180.615C824.753 180.803 823.187 180.991 821.447 180.991C816.75 180.991 813.27 179.675 811.008 177.043C808.746 174.411 808.224 170.087 809.268 164.259L816.228 129.103Z" fill="white"/>
<path d="M914.729 107.484L904.986 158.244C903.942 163.131 902.55 167.455 900.462 170.839C898.375 174.411 895.765 177.043 892.807 179.111C889.849 180.991 886.37 182.119 882.716 182.119C879.758 182.119 877.323 181.367 875.583 180.051C873.843 178.735 872.799 176.667 872.277 173.847C871.755 171.027 871.929 167.643 872.799 163.883L883.76 107.672H856.619L845.484 164.259C843.744 173.659 843.744 181.367 845.31 187.383C846.876 193.399 849.659 197.911 854.009 200.731C858.358 203.551 863.578 204.867 869.841 204.867C876.801 204.867 883.064 203.175 888.632 199.791C892.981 196.971 896.809 193.399 899.766 188.699L896.983 202.987H923.602L942.044 107.484H914.729Z" fill="white"/>
<path d="M1081.09 109.548C1076.91 106.728 1071.69 105.412 1065.43 105.412C1058.29 105.412 1052.03 107.104 1046.29 110.488C1041.42 113.496 1037.24 117.82 1033.76 123.648C1032.2 118.196 1029.76 114.06 1026.45 111.052C1022.45 107.292 1017.06 105.412 1010.45 105.412C1004.36 105.412 998.617 107.104 993.05 110.3C988.7 112.744 985.046 116.504 981.741 121.392L984.525 107.48H957.905L939.463 202.795H966.604L976.695 151.847C977.217 147.899 978.261 144.516 979.479 141.696C980.871 138.688 982.437 136.244 984.002 134.364C985.742 132.296 987.656 130.792 989.918 129.852C992.18 128.724 994.441 128.348 997.051 128.348C1000.01 128.348 1002.27 129.1 1003.84 130.416C1005.4 131.732 1006.27 133.8 1006.79 136.432C1007.32 139.064 1006.97 142.448 1006.1 146.583L995.137 203.171H1022.28L1032.37 152.223C1033.41 147.147 1034.81 142.824 1036.72 139.252C1038.63 135.68 1040.89 133.048 1043.68 131.168C1046.46 129.288 1049.59 128.348 1053.07 128.348C1056.03 128.348 1058.12 129.1 1059.86 130.416C1061.42 131.732 1062.47 133.8 1062.82 136.432C1063.16 139.064 1062.99 142.448 1062.29 146.583L1051.16 203.171H1078.3L1089.61 146.395C1091.35 136.996 1091.52 129.1 1089.96 123.084C1088.22 116.692 1085.26 112.368 1081.09 109.548Z" fill="white"/>
<path d="M1173.83 133.132C1176.61 131.064 1179.05 128.432 1180.79 125.425C1182.53 122.417 1183.92 119.221 1184.79 115.649C1185.66 112.077 1186.18 108.505 1186.18 104.557C1186.18 96.473 1183.92 90.2691 1179.57 85.7571C1175.05 81.2452 1168.61 78.9893 1160.09 78.9893H1120.07L1097.1 203.255H1143.73C1149.12 203.255 1154 202.127 1158.52 200.059C1163.04 197.991 1166.87 194.983 1170 191.224C1173.13 187.464 1175.74 183.14 1177.48 178.064C1179.22 172.988 1180.27 167.536 1180.27 161.332C1180.27 154.94 1178.88 149.864 1175.92 145.916C1172.96 141.968 1168.96 139.336 1163.56 138.02L1163.74 137.268C1167.57 136.704 1170.87 135.2 1173.83 133.132ZM1165.48 148.172C1168.61 151.368 1170.18 155.692 1170.18 161.144C1170.18 162.084 1170 163.4 1169.83 164.904C1169.65 166.596 1169.31 169.04 1168.61 172.236C1167.22 179.192 1164.43 184.456 1160.26 188.216C1156.08 191.976 1150.52 193.855 1143.56 193.855H1108.06L1117.46 143.096H1151.21C1157.65 143.284 1162.35 144.976 1165.48 148.172ZM1149.99 134.072H1119.2L1127.55 88.2011H1158.87C1164.78 88.2011 1169.13 89.7051 1172.09 92.525C1174.87 95.345 1176.44 99.4809 1176.44 104.557C1176.44 105.497 1176.44 106.813 1176.27 108.317C1176.09 109.821 1175.74 112.077 1175.22 115.273C1174 121.665 1171.22 126.365 1167.04 129.56C1162.35 132.568 1156.78 134.072 1149.99 134.072Z" fill="white"/>
<path d="M1220.44 192.515H1219.75L1208.09 112.24H1199.22L1213.31 205.487L1200.43 230.49H1185.82L1184.25 239.138H1197.13C1200.43 239.138 1203.04 238.386 1204.96 236.694C1206.87 235.002 1208.79 232.37 1210.87 228.422L1270.9 112.24H1261.15L1220.44 192.515Z" fill="white"/>
<path d="M1320.71 120.88L1322.27 112.232H1303.48L1308.18 86.8525H1299.83L1296.35 105.276C1295.83 107.908 1295.31 109.788 1294.44 110.728C1293.57 111.856 1291.83 112.42 1289.39 112.42H1281.04L1279.47 121.068H1293.39L1280.52 190.627C1280.17 192.131 1280 193.635 1280 195.703C1280 198.147 1280.69 200.027 1281.91 201.531C1283.3 203.035 1285.39 203.787 1288.52 203.787H1304.53L1306.09 195.139H1288.69L1302.44 121.444H1320.71V120.88Z" fill="white"/>
<path d="M1331.8 163.023C1343.29 162.835 1352.85 162.083 1360.51 160.579C1368.16 159.075 1374.43 157.007 1379.13 154.375C1383.82 151.743 1387.13 148.735 1389.04 145.163C1390.96 141.591 1392 137.831 1392 133.507C1392 129.748 1391.3 126.364 1389.91 123.356C1388.52 120.348 1386.61 117.904 1384.17 116.024C1381.74 114.144 1378.95 112.64 1375.65 111.512C1372.34 110.572 1368.86 110.008 1365.21 110.008C1358.77 110.008 1352.85 111.512 1347.63 114.708C1342.42 117.904 1337.89 122.04 1334.06 127.304C1330.41 132.567 1327.45 138.771 1325.37 145.915C1323.28 153.059 1322.23 160.391 1322.23 168.287C1322.23 180.695 1324.84 189.907 1330.24 196.11C1335.63 202.314 1343.11 205.51 1353.03 205.51C1359.47 205.51 1365.73 203.818 1371.64 200.622C1377.56 197.426 1382.95 191.975 1387.82 184.455L1381.56 179.191C1378.26 184.455 1374.25 188.779 1369.56 191.975C1364.86 195.17 1359.47 196.862 1353.55 196.862C1346.24 196.862 1340.68 194.606 1337.02 190.283C1333.37 185.959 1331.45 179.379 1331.45 170.919C1331.45 169.979 1331.45 168.663 1331.45 167.347C1331.45 165.655 1331.63 164.339 1331.8 163.023ZM1333.89 150.991C1335.8 141.403 1339.28 133.695 1344.68 127.68C1350.07 121.664 1356.51 118.656 1364.16 118.656C1369.73 118.656 1374.25 119.784 1377.56 122.228C1380.87 124.672 1382.61 128.244 1382.61 133.319C1382.61 136.327 1381.91 139.147 1380.69 141.779C1379.47 144.411 1377.04 146.479 1373.38 148.359C1369.73 150.239 1364.69 151.743 1358.25 152.871C1351.81 153.999 1343.29 154.751 1333.02 155.127L1333.89 150.991Z" fill="white"/>
<path d="M296.151 130.846L198.72 76.1388L210.203 5.63991C210.377 4.13593 210.029 2.81996 209.159 1.69197C208.289 0.563991 207.071 0 205.68 0H182.714C180.452 0 178.712 1.69197 178.19 3.94794L146.003 202.473C145.829 203.977 146.177 205.293 147.047 206.421C147.917 207.549 149.135 208.113 150.527 208.113H173.493C174.189 208.113 174.711 207.925 175.233 207.737L294.063 151.338C295.455 150.774 296.499 149.27 296.673 147.766L298.587 135.922C298.934 133.854 297.891 131.786 296.151 130.846ZM183.41 170.325L193.153 111.106L244.652 140.622L183.41 170.325Z" fill="white"/>
<path d="M151.78 75.7672C150.91 74.6392 149.692 74.0752 148.3 74.0752H125.334C124.639 74.0752 124.117 74.2632 123.595 74.4512L4.76421 130.85C3.37235 131.414 2.32845 132.918 2.15447 134.422L0.0666709 146.078C-0.281295 148.146 0.762603 150.214 2.50243 151.154L99.9329 205.861L88.45 276.36C88.276 277.864 88.624 279.18 89.4939 280.308C90.3638 281.436 91.5817 282 92.9736 282H115.939C118.201 282 119.941 280.308 120.463 278.052L152.65 79.7151C152.998 78.2111 152.65 76.7071 151.78 75.7672ZM105.674 171.082L54.1754 141.566L115.417 111.863L105.674 171.082Z" fill="white"/>
</g>
<defs>
<clipPath id="clip0_218_8966">
<rect width="1392" height="282" fill="white"/>
</clipPath>
</defs>
</svg>
