<svg xmlns="http://www.w3.org/2000/svg" viewBox="0 -0.000488281 132 32">
	<path d="M15.9844 23.3257C18.3721 23.3257 20.3103 25.2646 20.3105 27.6626C20.3105 30.0608 18.3722 32.0005 15.9844 32.0005C13.5967 32.0003 11.6592 30.0607 11.6592 27.6626C11.6594 25.2647 13.5969 23.3259 15.9844 23.3257ZM106.029 7.62256C107.548 7.62264 108.919 7.99787 110.145 8.74854H110.155C111.391 9.49925 112.355 10.5 113.077 11.772C113.8 13.0441 114.156 14.4937 114.156 16.0474C114.156 17.6009 113.8 19.0295 113.088 20.312C112.386 21.605 111.412 22.6166 110.187 23.3569C108.961 24.0868 107.568 24.4614 106.008 24.4614C104.845 24.4614 103.767 24.232 102.793 23.7837C102.133 23.4813 101.557 23.0644 101.086 22.564V30.0405H97.1689V7.97705H100.845V9.89502C101.347 9.25906 101.976 8.74824 102.74 8.35205C103.693 7.86198 104.783 7.62256 106.029 7.62256ZM71.1318 7.62256C72.3886 7.62256 73.4994 7.83048 74.4629 8.24756C75.4263 8.66461 76.2429 9.23845 76.9131 9.96826H76.9033C77.584 10.6981 78.0863 11.5328 78.4424 12.4712C78.7984 13.4095 78.9766 14.4211 78.9766 15.5054C78.9766 15.8076 78.966 16.0999 78.9346 16.3813C78.9032 16.6627 78.8503 16.9334 78.7666 17.1626H67.1631C67.2259 17.7048 67.3521 18.2058 67.5615 18.6646C67.9071 19.4255 68.42 20.0092 69.1006 20.4263C69.7813 20.8434 70.5668 21.0522 71.457 21.0522C72.3472 21.0522 73.1011 20.8641 73.7295 20.4888C74.3473 20.1134 74.8393 19.613 75.1953 18.9771L78.3379 20.52C78.0237 21.2915 77.5315 21.9697 76.8613 22.564C76.1911 23.1583 75.3949 23.6278 74.4629 23.9614C73.5308 24.2951 72.5247 24.4614 71.4355 24.4614C69.7706 24.4614 68.3152 24.0861 67.0586 23.3354C65.8019 22.5847 64.8279 21.5632 64.1367 20.2808C63.4455 18.9983 63.0996 17.6427 63.0996 16.0161C63.0996 14.3895 63.4558 12.95 64.168 11.6987C64.8801 10.4373 65.8437 9.44709 67.0479 8.71729C68.2521 7.98747 69.6135 7.62264 71.1318 7.62256ZM87.7578 7.62256C89.0144 7.62256 90.1245 7.83059 91.0879 8.24756C92.0514 8.66464 92.8688 9.23837 93.5391 9.96826H93.5283C94.1986 10.6982 94.7123 11.5328 95.0684 12.4712C95.4243 13.4095 95.6025 14.4212 95.6025 15.5054C95.6025 15.8076 95.592 16.0999 95.5605 16.3813C95.5291 16.6626 95.4763 16.9334 95.3926 17.1626H83.7891C83.8519 17.7048 83.9771 18.2058 84.1865 18.6646C84.5321 19.4257 85.0458 20.0092 85.7266 20.4263C86.4073 20.8433 87.1929 21.0522 88.083 21.0522C88.973 21.0522 89.7272 20.8641 90.3555 20.4888C90.9732 20.1134 91.4653 19.613 91.8213 18.9771L94.9629 20.52C94.6487 21.2916 94.1566 21.9696 93.4863 22.564C92.8161 23.1583 92.02 23.6278 91.0879 23.9614C90.1559 24.295 89.1506 24.4614 88.0615 24.4614C86.3964 24.4614 84.9403 24.0862 83.6836 23.3354C82.427 22.5847 81.4529 21.5632 80.7617 20.2808C80.0705 18.9983 79.7256 17.6427 79.7256 16.0161C79.7256 14.3895 80.0808 12.95 80.793 11.6987C81.5051 10.4371 82.4695 9.44715 83.6738 8.71729C84.8782 7.98747 86.2393 7.62257 87.7578 7.62256ZM123.465 7.62256C125.067 7.62256 126.512 7.98739 127.79 8.71729C129.078 9.44709 130.094 10.4477 130.858 11.6987V11.689C131.623 12.9402 132 14.4205 132 16.0366C132 17.6527 131.623 19.1022 130.849 20.3638C130.084 21.6254 129.058 22.627 127.77 23.3569C126.492 24.0868 125.036 24.4516 123.476 24.4517C121.915 24.4517 120.491 24.0866 119.192 23.3569C117.894 22.627 116.867 21.6254 116.092 20.3638C115.327 19.1022 114.939 17.6527 114.939 16.0366C114.939 14.4205 115.327 12.9711 116.092 11.7095C116.856 10.4479 117.883 9.44716 119.171 8.71729C120.449 7.9874 121.863 7.62256 123.465 7.62256ZM45.8242 7.61182C47.1437 7.61182 48.3169 7.9667 49.3223 8.65479C49.9505 9.09263 50.4428 9.61397 50.7988 10.229C51.2282 9.54086 51.7626 8.99861 52.4014 8.58154C53.3858 7.94549 54.528 7.62256 55.8057 7.62256C56.9576 7.6226 57.9734 7.88316 58.874 8.39404L58.9053 8.3833C59.8059 8.90464 60.5073 9.61418 61.0205 10.5317C61.5337 11.4493 61.7959 12.5127 61.7959 13.7222V24.0972H57.9102V14.6401C57.9102 13.9311 57.7738 13.3256 57.5225 12.8042C57.2711 12.2935 56.905 11.8867 56.4443 11.6157C55.9835 11.3342 55.4177 11.1987 54.7998 11.1987C54.182 11.1988 53.6373 11.3446 53.166 11.6157C52.6948 11.8972 52.3282 12.2934 52.0664 12.8042C51.8046 13.3151 51.6787 13.9311 51.6787 14.6401V24.0972H47.7939V14.6401C47.7939 13.9311 47.6681 13.3256 47.4062 12.8042C47.1549 12.2934 46.7879 11.8868 46.3271 11.6157C45.8665 11.3344 45.3012 11.1988 44.6836 11.1987C44.0659 11.1987 43.521 11.3448 43.0498 11.6157C42.5787 11.8971 42.212 12.2936 41.9502 12.8042C41.6884 13.3151 41.5625 13.9311 41.5625 14.6401V24.0972H37.6455V7.96631H41.3213V9.98975C41.6459 9.35379 42.0963 8.84264 42.6826 8.46729C43.5727 7.89387 44.62 7.61189 45.8242 7.61182ZM105.558 11.1987C104.709 11.1987 103.944 11.4076 103.264 11.8247C102.583 12.2418 102.049 12.8147 101.661 13.5444C101.274 14.2743 101.086 15.0878 101.086 16.0366C101.086 16.9854 101.274 17.8302 101.661 18.5601C102.049 19.2899 102.583 19.8637 103.264 20.2808C103.944 20.6978 104.667 20.9058 105.558 20.9058C106.448 20.9057 107.233 20.6978 107.914 20.2808C108.595 19.8637 109.128 19.2899 109.526 18.5601C109.924 17.8302 110.124 16.9646 110.124 16.0366C110.124 15.1087 109.924 14.2743 109.526 13.5444C109.139 12.8148 108.595 12.2417 107.914 11.8247C107.233 11.4076 106.406 11.1987 105.558 11.1987ZM123.476 11.2095C122.606 11.2095 121.831 11.4175 121.161 11.8345C120.491 12.2516 119.967 12.8253 119.579 13.5552C119.192 14.285 119.004 15.1194 119.004 16.0474C119.004 16.9751 119.192 17.8091 119.579 18.5493C119.956 19.2896 120.491 19.8637 121.161 20.2808C121.831 20.6977 122.586 20.9058 123.476 20.9058C124.366 20.9057 125.141 20.6978 125.801 20.2808C126.46 19.8741 126.984 19.2895 127.371 18.5493C127.748 17.8091 127.947 16.9752 127.947 16.0474C127.947 15.1194 127.759 14.2851 127.371 13.5552C126.984 12.8254 126.46 12.2515 125.801 11.8345C125.141 11.4174 124.345 11.2095 123.476 11.2095ZM4.3252 11.6577C6.71302 11.6577 8.65039 13.5974 8.65039 15.9956C8.65019 18.3937 6.71289 20.3325 4.3252 20.3325C1.93755 20.3325 0.000200329 18.3936 0 15.9956C0 13.5974 1.93743 11.6578 4.3252 11.6577ZM15.9844 11.6577C18.3722 11.6577 20.3105 13.5974 20.3105 15.9956C20.3103 18.3937 18.3721 20.3325 15.9844 20.3325C13.5969 20.3323 11.6594 18.3935 11.6592 15.9956C11.6592 13.5975 13.5967 11.6579 15.9844 11.6577ZM27.6523 11.6577C30.04 11.6579 31.9775 13.5975 31.9775 15.9956C31.9773 18.3936 30.0399 20.3324 27.6523 20.3325C25.2646 20.3325 23.3274 18.3937 23.3271 15.9956C23.3271 13.5974 25.2645 11.6577 27.6523 11.6577ZM71.1318 10.8237C70.3153 10.8238 69.593 11.0319 68.9648 11.4487C68.3365 11.8658 67.854 12.4603 67.5293 13.2319C67.4036 13.5239 67.3099 13.8371 67.2471 14.1812H74.8291C74.7977 13.8058 74.735 13.4614 74.6094 13.1382C74.3475 12.4291 73.918 11.8658 73.3105 11.4487C72.7031 11.0317 71.9486 10.8237 71.1318 10.8237ZM87.7686 10.8237C86.9517 10.8237 86.2289 11.0317 85.6006 11.4487C84.9723 11.8658 84.4907 12.4604 84.166 13.2319C84.0403 13.5239 83.9456 13.8371 83.8828 14.1812H91.4648C91.4334 13.8058 91.3708 13.4614 91.2451 13.1382C90.9833 12.4291 90.5537 11.8658 89.9463 11.4487C89.339 11.0319 88.5852 10.8238 87.7686 10.8237ZM15.9844 -0.000488281C18.3721 -0.000488281 20.3104 1.93929 20.3105 4.3374C20.3105 6.73562 18.3722 8.67529 15.9844 8.67529C13.5967 8.67508 11.6592 6.73549 11.6592 4.3374C11.6593 1.93942 13.5968 -0.000272251 15.9844 -0.000488281Z" fill="#ffffffff"/>
</svg>